<?xml version="1.0" encoding="utf-8"?>
<!-- Generator: Adobe Illustrator 21.1.0, SVG Export Plug-In . SVG Version: 6.00 Build 0)  -->
<svg version="1.1" xmlns="http://www.w3.org/2000/svg" xmlns:xlink="http://www.w3.org/1999/xlink" x="0px" y="0px" viewBox="0 0 822.8 287.2" style="enable-background:new 0 0 822.8 287.2;" xml:space="preserve">
    <style type="text/css">
	.st0{display:none;}
	.st1{display:inline;}
	.st2{fill:none;stroke:#000000;stroke-width:3;stroke-miterlimit:10;}
	.st3{fill:none;}
	.st4{font-family:'JosefinSans-Thin';}
	.st5{font-size:164px;}
</style>
    <g id="Calque_2" class="st0">

        <image style="display:inline;overflow:visible;opacity:0.42;" width="800" height="600" xlink:href="../../../../../../Downloads/sv_spiced.jpg" transform="matrix(0.72 0 0 0.72 77.7746 -217.8762)"></image>
    </g>
    <g id="Calque_5" class="st0">

        <image style="display:inline;overflow:visible;opacity:0.61;" width="800" height="600" xlink:href="../../../../../../Downloads/daniel-dribbbs.jpg" transform="matrix(0.4697 0 0 0.4697 193.4375 -64.9628)"></image>
    </g>
    <g id="Calque_6" class="st0">
        <path class="st1" d="M297.7-8.4l7.2,0.7c0,0,41.9-10.9,49.3,7.4c0,0,18.3-4.1,22.9,0.4c0,0,12.8-15.2,50.4-4.6l7-1l0.8,6.6l-4.9,2
		l-4.3,21.8c0,0-17.1,14.4-44.7,1.5l-5.9-21.4c0,0-6.9-4.3-19.3-0.4l-3.8,16.4c0,0-5.6,16.6-44,5.9c0,0-10.1-8.7-5.1-22.1l-2.4-5
		L297-0.8L297.7-8.4z" />
    </g>
    <g id="Calque_8"></g>
    <g id="Calque_7"></g>
    <g id="Calque_3"></g>
    <g id="Calque_4">
        <g>
            <g>
                <circle class="st2" cx="128.6" cy="130.8" r="13.8" />
                <path class="st2" d="M142.4,130.5c2.2-1.8,5.2-2.9,8.4-2.9c3.4,0,6.4,1.2,8.7,3.1" />
                <circle class="st2" cx="173.4" cy="130.8" r="13.8" />
            </g>
            <g>
                <path d="M277.7,20.7c-0.4,19.7-2.2,27.4-7.5,35.6c-5.3,8.2-17.4,12.9-33.9,12.8l-41.2-0.2l3.4,16.9h-94.8l2.6-16.5l0-0.8L65,68.3
				c-16.8-0.1-28.2-4.6-33.5-13.1c-5.2-8.6-7-16.2-7.2-35.6l3.2,0c5.2,20.3,14,26.8,36.1,26.9l49.4,0.2c24.4,0.1,32,5.7,37.8,27.8
				c5.7-22,13.1-27.6,37.8-27.5l49.4,0.2c22.1,0.1,30.9-6.3,36.3-26.6L277.7,20.7z" />
            </g>
            <polygon points="104,106.7 88.3,204.3 76.9,232.1 92.6,244.2 104,215 100.4,250.6 109,259.9 118.2,249.2 148.9,269.9 150.7,204.3 
			152.4,204.2 152,269.6 180.3,247 187.4,252.6 199,253.7 215.2,237.5 208.3,220.8 218.9,235.3 225.4,230.2 207,183.6 197.4,108.7 
			191.9,108.7 198.5,182.7 190.3,169 114.3,169.8 107.2,180.8 108.4,106.7 		" />
        </g>
        <rect x="227.9" y="79.9" class="st3" width="564.5" height="178.9" />
        <text transform="matrix(1 0 0 1 227.9236 203.2458)" class="st4 st5">vikkoder</text>
    </g>
</svg>
