<?xml version="1.0" encoding="utf-8"?>
<!-- Generator: Adobe Illustrator 21.1.0, SVG Export Plug-In . SVG Version: 6.00 Build 0)  -->
<svg version="1.1" id="Calque_1" xmlns="http://www.w3.org/2000/svg" xmlns:xlink="http://www.w3.org/1999/xlink" x="0px" y="0px" viewBox="0 0 210 310" style="enable-background:new 0 0 210 310;" xml:space="preserve">
    <style type="text/css">
	.st0{fill:#3F3D56;}
	.st1{fill:#E6E6E6;}
	.st2{fill:#F4BE58;}
</style>
    <path class="st0" d="M142,308.1c-22.3,1.4-46.5-0.1-72.3,0V249c22.7,3.5,47,3.2,72.3,0V308.1z" />
    <polygon class="st0" points="108.4,254.3 102.3,254.3 104.4,134.9 106.4,134.9 " />
    <polygon class="st0" points="135.9,255.1 129.8,255.1 131.9,135.8 133.9,135.8 " />
    <polygon class="st0" points="84,255.1 77.9,255.1 79.9,135.8 82,135.8 " />
    <path class="st1" d="M113.5,58.6l9.9-15.2c-2.9-8.1-6.3-16-10.1-23.7l-6.4,5.2l5-7.8c-4.8-9.5-8.6-15.4-8.6-15.4S83.6,32.7,77,65.7
	l12.7,19.6L75.6,74c-0.5,3.8-0.8,7.7-0.8,11.6c0,39.1,12.8,70.8,28.5,70.8s28.5-31.7,28.5-70.8c0-12.1-2.7-24.8-6.5-36.5L113.5,58.6
	z" />
    <path class="st2" d="M141,60.6l9.9-15.2c-2.9-8.1-6.3-16-10.1-23.7l-6.4,5.2l5-7.8c-4.8-9.5-8.6-15.4-8.6-15.4s-19.8,31.2-26.4,64.2
	l12.7,19.6l-14-11.3c-0.5,3.8-0.8,7.7-0.8,11.6c0,39.1,12.8,70.8,28.5,70.8c15.7,0,28.5-31.7,28.5-70.8c0-12.1-2.7-24.8-6.5-36.5
	L141,60.6z" />
    <path class="st2" d="M89.1,60.6l9.9-15.2c-2.9-8.1-6.3-16-10.1-23.7l-6.4,5.2l5-7.8c-4.8-9.5-8.6-15.4-8.6-15.4S59.1,34.8,52.5,67.8
	l12.7,19.6L51.2,76c-0.5,3.8-0.8,7.7-0.8,11.6c0,39.1,12.8,70.8,28.5,70.8s28.5-31.7,28.5-70.8c0-12.1-2.7-24.8-6.5-36.5L89.1,60.6z
	" />
</svg>
